HIERARCHY
ROOT Spine
{
    OFFSET 0.0 0.0 -0.0
    CHANNELS 6 Xposition Yposition Zposition Zrotation Xrotation Yrotation
    JOINT ShoulderCenter
    {
        OFFSET 0.0 33.508056640625 0.0
        CHANNELS 3 Zrotation Xrotation Yrotation
        JOINT LeftShoulder
        {
            OFFSET 17.554550170898438 0.0 0.0
            CHANNELS 3 Zrotation Xrotation Yrotation
            JOINT LeftElbow
            {
                OFFSET 28.664031982421875 0.0 0.0
                CHANNELS 3 Zrotation Xrotation Yrotation
                JOINT LeftHand
                {
                    OFFSET 32.25125503540039 0.0 0.0
                    CHANNELS 3 Zrotation Xrotation Yrotation
                    End Site
                    {
                        OFFSET 12.900503158569336 0.0 0.0
                    }
                }
            }
        }
        JOINT RightShoulder
        {
            OFFSET -17.554550170898438 0.0 0.0
            CHANNELS 3 Zrotation Xrotation Yrotation
            JOINT RightElbow
            {
                OFFSET -28.664031982421875 0.0 0.0
                CHANNELS 3 Zrotation Xrotation Yrotation
                JOINT RightHand
                {
                    OFFSET -32.25125503540039 0.0 0.0
                    CHANNELS 3 Zrotation Xrotation Yrotation
                    End Site
                    {
                        OFFSET -12.900503158569336 0.0 0.0
                    }
                }
            }
        }
        End Site
        {
            OFFSET 0.0 13.40322208404541 0.0
        }
    }
    JOINT LeftHip
    {
        OFFSET 17.022781682257772 -17.022781682257772 0.0
        CHANNELS 3 Zrotation Xrotation Yrotation
        JOINT LeftKnee
        {
            OFFSET 0.0 -39.95870590209961 0.0
            CHANNELS 3 Zrotation Xrotation Yrotation
            JOINT LeftFoot
            {
                OFFSET 0.0 -44.482826232910156 0.0
                CHANNELS 3 Zrotation Xrotation Yrotation
                End Site
                {
                    OFFSET 0.0 0.0 17.793132781982422
                }
            }
        }
    }
    JOINT RightHip
    {
        OFFSET -17.022781682257772 -17.022781682257772 0.0
        CHANNELS 3 Zrotation Xrotation Yrotation
        JOINT RightKnee
        {
            OFFSET 0.0 -39.95870590209961 0.0
            CHANNELS 3 Zrotation Xrotation Yrotation
            JOINT RightFoot
            {
                OFFSET 0.0 -44.482826232910156 0.0
                CHANNELS 3 Zrotation Xrotation Yrotation
                End Site
                {
                    OFFSET 0.0 0.0 17.793132781982422
                }
            }
        }
    }
}
MOTION
Frames: 7
Frame Time: 0.03333333333333333
10.199999809265137 9.600000381469727 -122.5 -0.3451524428586069 7.718828599346301 7.677531638751895 4.096951873676008e-08 6.189081793646682e-07 -11.676358901746665 100.56985368934205 11.284725076585476 173.31952780532154 -1.4126619262295745e-06 -2.9042716693777376e-07 39.857541164286665 7.951386703658792e-16 -1.5902773407317584e-15 1.5902773407317584e-15 -103.60639571516096 46.281114072802644 -164.4088361798837 3.966304275495702e-06 -2.448172760390283e-07 -16.22430430980086 -3.1805546814635168e-15 -6.3611093629270335e-15 -1.7655625192200634e-31 -5.423982108017168 -1.6248485130329255 -31.659302154166788 -0.16813210309811447 1.274686776516924 -2.156035853361181 -1.7241821476758432e-33 1.987846675914698e-16 9.93923337957349e-16 -4.886712256569759 -37.78988904113925 -54.62265426007108 -4.449099496261398 -2.1806858213789266 -5.765255064163573 -3.1805546814635164e-15 3.1805546814635164e-15 3.1805546814635164e-15
10.100000381469727 9.5 -120.0999984741211 0.172577800602775 8.226679406980379 7.628384704768989 -1.4238893870664815e-07 -1.0984603922114726e-06 -11.578209910150548 99.88073882900098 12.5232259311448 172.80639511409214 -1.188434359466655e-06 -5.057900955799949e-07 38.37156542099651 -6.361109362927032e-15 -3.180554681463516e-15 1.5902773407317578e-15 -105.8404547350648 49.47883070212619 -163.19295548001756 2.0659268467422437e-06 3.2344010903804595e-06 -15.020891904519395 1.5902773407317588e-15 -3.1805546814635176e-15 3.1805546814635176e-15 -5.535445609675322 0.21343616438487162 -34.06082966644332 0.49872777724399714 -0.2281317105903869 0.38804605728717967 0.0 0.0 -1.5405811738338909e-15 -5.921475090161957 -38.4163400073017 -56.74122901501605 -3.2748415391118835 -3.3219206839401685 -8.019523747453688 1.590277340731758e-15 9.379550883356588e-32 6.758678698109972e-15
9.899999618530273 9.300000190734863 -117.5999984741211 0.6923618234830771 8.758537409766456 7.327747616487357 -5.993073723604509e-08 -9.800638411322843e-08 -11.093181404810766 99.53808853538588 12.841302661234824 172.13524099451658 2.129538498751566e-06 -3.096266173938286e-06 36.858524722933474 -2.782985346280577e-15 -3.1805546814635168e-15 -7.724336021587778e-32 -107.44115410371892 50.78046195047793 -162.33832476113938 2.0085996024811695e-06 -1.6181202053754115e-07 -14.601881585364495 1.5902773407317584e-15 -3.1805546814635168e-15 6.3611093629270335e-15 -5.849817198558622 1.7545893673066464 -35.546033453916685 0.9682797735686821 -1.0774829084271136 1.7798861407425037 0.0 0.0 -6.957463365701443e-16 -6.805679672496281 -39.23604556931968 -59.70152492878087 -4.251989140015678 -2.5905964404693584 -6.458276816912847 2.758691436281349e-33 -7.951386703658791e-16 3.9756933518293955e-16
9.700000762939453 9.199999809265137 -115.10000610351562 1.3887170031579128 9.459606463700798 7.7779498686844635 -1.81872557351551e-07 -7.224416834132714e-07 -11.37014080286259 99.03447847432685 13.287269322151893 171.78403685354183 2.64046455405219e-06 1.8759548972839404e-06 34.70576728115356 -1.987846675914698e-16 -1.3793457181406746e-33 7.951386703658792e-16 -109.02971288472672 53.03702235570383 -161.44622787810724 -6.285563980176927e-07 2.8160832256747457e-06 -14.670598120015908 -7.95138670365879e-15 -3.1805546814635164e-15 -2.2069531490250793e-31 -6.110068224808085 2.801864860753042 -38.216892937484346 1.172119984865959 -1.0472603681465036 1.7475305008966762 3.724233438979821e-32 -1.5902773407317584e-15 2.683593012484842e-15 -7.548302215445071 -38.99652731995856 -57.79221169198192 -5.202609954276065 -2.032936215143427 -5.375017257269622 7.951386703658791e-16 -2.3854160110976376e-15 -2.782985346280577e-15
9.399999618530273 9.09999942779541 -112.30000305175781 2.2559389713533355 9.792408470825768 8.033420149579383 -8.287132774783464e-08 -3.354395794444126e-07 -11.981450115412049 98.38302738475579 14.97807701444075 170.9597808128505 -2.983953596572112e-07 1.4289976147158341e-06 32.51505582087513 -1.987846675914698e-16 -3.975693351829396e-16 1.5902773407317584e-15 -109.56937864307615 51.35104125006781 -161.5142489956825 5.660262818076674e-07 -7.769997394196188e-07 -14.897387326283532 1.5902773407317582e-15 8.827812596100317e-32 6.361109362927033e-15 -6.643619361994689 3.9029387134996782 -38.78041210981682 0.820618470024366 -0.4713671081982247 0.7695243784155091 -1.2414111463266072e-32 -1.5902773407317584e-15 -8.945310041616142e-16 -8.753967709301918 -37.4662198897359 -58.2005248115856 -5.115565952169687 -1.0034833564869785 -2.8156453752284794 0.0 0.0 -2.3854160110976384e-15
9.0 9.199999809265137 -109.30000305175781 2.7842276200328677 9.986486166302832 8.177850343338612 -1.7968230572318384e-07 -1.614260072651788e-07 -12.067035559196306 98.2476179288819 16.039768320703452 170.08334987022343 -4.347997022636364e-08 4.701048090792414e-07 30.140124840439633 8.398652205739598e-15 -4.3708017443582625e-32 -5.963540027744092e-16 -110.70138814119453 53.56264250713957 -161.21591306697027 -1.7943686852369087e-06 1.723657474106331e-06 -14.368759401671113 0.0 -3.1805546814635168e-15 0.0 -6.546289335332755 5.066656518844188 -40.612790813254115 0.1197479406466303 0.15035613960494426 -0.2398746172093095 -1.5902773407317584e-15 1.5902773407317584e-15 -2.5842006786891076e-15 -8.158182435645573 -34.895559187647834 -52.531827703539065 -5.266779117464845 -0.33410908668263467 -1.0167818934063788 0.0 0.0 -4.770832022195277e-15
8.600000381469727 9.600000381469727 -106.20000457763672 3.641186002550719 9.948654239715472 7.622552533749425 1.5949795175716076e-07 4.779962611001278e-07 -11.89988929619093 98.03159385439153 18.016102440374144 169.6928533404624 -1.8190011447998136e-07 -2.0056726258779753e-06 27.01871714624989 -2.3854160110976376e-15 -1.6552148617688095e-32 7.951386703658792e-16 -111.73458931942291 54.52904794926915 -160.79109388598826 4.972520023411709e-06 6.070492386544837e-06 -14.223738433670356 -6.361109362927035e-15 -3.1805546814635183e-15 6.361109362927035e-15 -6.798564070310922 6.426803817804364 -41.617676204233874 -0.45128358628875315 0.7920780614085017 -1.250922603995901 1.5902773407317584e-15 0.0 0.0 -8.390682766675784 -32.45164483212955 -49.358878036341544 -3.6191164346527476 -1.2068383736680663 -3.525508335618357 2.3854160110976376e-15 3.9756933518293955e-16 -2.5842006786891076e-15
